<svg width="158" height="28" viewBox="0 0 158 28" fill="none" xmlns="http://www.w3.org/2000/svg">
<g id="Group 1">
<g id="Toolnest.Ai">
<path id="Vector" d="M154.252 20.1835L154.201 9.42361L157.32 9.4088L157.372 20.1687L154.252 20.1835ZM155.753 7.91622C155.18 7.91894 154.713 7.75449 154.351 7.42287C153.989 7.09125 153.807 6.67877 153.805 6.18545C153.803 5.69212 153.981 5.27794 154.339 4.9429C154.698 4.60786 155.164 4.43898 155.737 4.43626C156.31 4.43354 156.778 4.59132 157.139 4.90961C157.501 5.21457 157.682 5.61371 157.685 6.10704C157.687 6.62703 157.509 7.06121 157.151 7.40958C156.806 7.74456 156.34 7.91344 155.753 7.91622Z" fill="#5044E5"/>
<path id="Vector_2" d="M137.319 20.2638L143.493 6.23438L146.693 6.2192L153.019 20.1893L149.619 20.2055L144.441 7.8699L145.72 7.86383L140.639 20.2481L137.319 20.2638ZM140.425 17.2491L141.273 14.785L148.473 14.7508L149.365 17.2066L140.425 17.2491Z" fill="#5044E5"/>
<path id="Vector_3" d="M134.241 20.4384C133.708 20.441 133.247 20.2632 132.859 19.905C132.483 19.5334 132.295 19.061 132.292 18.4877C132.289 17.9143 132.474 17.4535 132.845 17.105C133.23 16.7432 133.689 16.561 134.223 16.5585C134.769 16.5559 135.23 16.7337 135.605 17.0919C135.98 17.4368 136.169 17.8959 136.172 18.4693C136.175 19.0426 135.99 19.5168 135.619 19.8919C135.247 20.2537 134.788 20.4358 134.241 20.4384Z" fill="#5044E5"/>
<path id="Vector_4" d="M128.574 20.4653C127.308 20.4714 126.32 20.156 125.61 19.5194C124.9 18.8694 124.542 17.9044 124.536 16.6245L124.491 7.18457L127.611 7.16976L127.656 16.5697C127.658 17.023 127.78 17.3757 128.021 17.6279C128.262 17.8668 128.589 17.9852 129.003 17.9833C129.496 17.9809 129.915 17.8456 130.261 17.5773L131.111 19.7733C130.792 20.0015 130.406 20.1766 129.954 20.2988C129.514 20.4075 129.054 20.4631 128.574 20.4653ZM122.855 12.2124L122.844 9.81241L130.304 9.77702L130.315 12.177L122.855 12.2124Z" fill="#5044E5"/>
<path id="Vector_5" d="M117.17 20.5194C116.25 20.5238 115.362 20.4214 114.508 20.2121C113.667 19.9894 112.999 19.7126 112.504 19.3816L113.534 17.1367C114.028 17.441 114.61 17.6916 115.277 17.8884C115.958 18.0718 116.625 18.162 117.278 18.1589C117.998 18.1555 118.505 18.0664 118.797 17.8917C119.103 17.7169 119.255 17.4762 119.254 17.1695C119.253 16.9162 119.132 16.7301 118.891 16.6112C118.664 16.479 118.357 16.3804 117.97 16.3156C117.583 16.2508 117.156 16.1861 116.689 16.1217C116.235 16.0572 115.775 15.9727 115.308 15.8682C114.84 15.7504 114.413 15.5791 114.025 15.3543C113.637 15.1295 113.323 14.8243 113.081 14.4388C112.852 14.0532 112.737 13.5537 112.734 12.9404C112.73 12.2604 112.921 11.6595 113.305 11.1377C113.703 10.6158 114.274 10.2064 115.019 9.90953C115.764 9.59933 116.657 9.44176 117.697 9.43682C118.43 9.43334 119.177 9.5098 119.938 9.66619C120.699 9.82258 121.333 10.0529 121.841 10.3572L120.812 12.5821C120.291 12.2779 119.763 12.0737 119.229 11.9696C118.709 11.852 118.202 11.7945 117.708 11.7968C117.015 11.8001 116.509 11.8958 116.19 12.084C115.87 12.2722 115.712 12.5129 115.713 12.8063C115.714 13.0729 115.829 13.2724 116.056 13.4047C116.296 13.5368 116.61 13.642 116.997 13.7202C117.384 13.7984 117.805 13.8697 118.258 13.9342C118.725 13.9853 119.192 14.0698 119.66 14.1876C120.127 14.3053 120.548 14.4767 120.922 14.7016C121.31 14.9131 121.624 15.2116 121.866 15.5971C122.108 15.9693 122.23 16.4621 122.233 17.0754C122.236 17.742 122.039 18.3363 121.642 18.8582C121.244 19.3668 120.666 19.7695 119.907 20.0665C119.162 20.3633 118.25 20.5143 117.17 20.5194Z" fill="#5044E5"/>
<path id="Vector_6" d="M106.273 20.5712C105.046 20.577 103.965 20.3421 103.029 19.8665C102.107 19.3909 101.39 18.741 100.88 17.9167C100.369 17.0791 100.111 16.127 100.106 15.0604C100.101 13.9804 100.343 13.0259 100.833 12.1969C101.335 11.3545 102.019 10.6979 102.883 10.2271C103.748 9.74301 104.727 9.49837 105.82 9.49318C106.873 9.48818 107.821 9.71035 108.663 10.1597C109.519 10.5956 110.195 11.2324 110.692 12.0701C111.189 12.8944 111.441 13.8866 111.446 15.0465C111.447 15.1665 111.441 15.3066 111.428 15.4666C111.416 15.6134 111.403 15.7534 111.39 15.8868L102.65 15.9283L102.642 14.1083L109.742 14.0746L108.544 14.6203C108.542 14.0603 108.426 13.5742 108.197 13.1619C107.969 12.7497 107.654 12.4312 107.253 12.2064C106.852 11.9683 106.384 11.8505 105.851 11.8531C105.318 11.8556 104.845 11.9778 104.433 12.2198C104.034 12.4484 103.722 12.7765 103.498 13.2042C103.273 13.6186 103.162 14.1125 103.165 14.6858L103.167 15.1658C103.17 15.7525 103.299 16.2719 103.554 16.724C103.823 17.1627 104.191 17.501 104.659 17.7388C105.14 17.9632 105.701 18.0738 106.341 18.0708C106.914 18.0681 107.414 17.979 107.839 17.8037C108.279 17.6283 108.677 17.3664 109.036 17.018L110.704 18.8101C110.214 19.3724 109.596 19.8087 108.85 20.1189C108.105 20.4158 107.246 20.5665 106.273 20.5712Z" fill="#5044E5"/>
<path id="Vector_7" d="M93.5139 9.55158C94.3672 9.54753 95.128 9.71725 95.7963 10.0608C96.4779 10.3909 97.0137 10.9083 97.4037 11.6131C97.7936 12.3046 97.9912 13.197 97.9964 14.2904L98.0256 20.4503L94.9057 20.4651L94.8787 14.7852C94.8746 13.9185 94.6782 13.2794 94.2896 12.8679C93.9143 12.4564 93.38 12.2522 92.6867 12.2555C92.1934 12.2579 91.7472 12.3667 91.3482 12.5819C90.9625 12.7837 90.6573 13.0985 90.4327 13.5262C90.2214 13.9539 90.1173 14.5011 90.1205 15.1677L90.1457 20.4877L87.0258 20.5025L86.9747 9.74261L89.9547 9.72847L89.9688 12.7084L89.4045 11.8111C89.7878 11.0893 90.3385 10.5333 91.0566 10.1432C91.7748 9.75317 92.5939 9.55594 93.5139 9.55158Z" fill="#5044E5"/>
<path id="Vector_8" d="M81.0102 20.531L80.9398 5.69119L84.0597 5.67639L84.1301 20.5162L81.0102 20.531Z" fill="#5044E5"/>
<path id="Vector_9" d="M73.0255 20.7289C71.8789 20.7344 70.8578 20.4992 69.9622 20.0235C69.0799 19.5476 68.3768 18.8976 67.8529 18.0734C67.3422 17.2359 67.0844 16.2837 67.0793 15.2171C67.0742 14.1371 67.323 13.1826 67.8257 12.3535C68.3418 11.511 69.0386 10.8544 69.9164 10.3836C70.8075 9.89933 71.8263 9.65449 72.973 9.64905C74.1063 9.64367 75.1208 9.87886 76.0164 10.3546C76.9119 10.817 77.615 11.4604 78.1255 12.2846C78.6361 13.1089 78.894 14.0677 78.8992 15.161C78.9043 16.2276 78.6555 17.1822 78.1528 18.0246C77.65 18.8536 76.9531 19.5103 76.0621 19.9945C75.1711 20.4787 74.1589 20.7235 73.0255 20.7289ZM73.0134 18.169C73.5334 18.1665 73.9995 18.0443 74.4117 17.8023C74.8239 17.5604 75.1489 17.2188 75.3868 16.7777C75.6247 16.3232 75.7421 15.7893 75.7392 15.176C75.7363 14.5493 75.6137 14.0166 75.3716 13.5777C75.1296 13.1389 74.8013 12.8004 74.3868 12.5624C73.9723 12.3243 73.5051 12.2066 72.9851 12.209C72.4651 12.2115 71.999 12.3337 71.5868 12.5757C71.1747 12.8176 70.8429 13.1592 70.5917 13.6004C70.3538 14.0415 70.2363 14.5754 70.2393 15.2021C70.2422 15.8154 70.3647 16.3482 70.6069 16.8004C70.8623 17.2391 71.1972 17.5776 71.6117 17.8156C72.0262 18.0536 72.4934 18.1714 73.0134 18.169Z" fill="#5044E5"/>
<path id="Vector_10" d="M59.9203 20.7911C58.7736 20.7965 57.7525 20.5614 56.8569 20.0856C55.9746 19.6098 55.2715 18.9598 54.7476 18.1356C54.237 17.298 53.9791 16.3459 53.974 15.2793C53.9689 14.1993 54.2177 13.2447 54.7205 12.4157C55.2365 11.5732 55.9334 10.9166 56.8111 10.4457C57.7022 9.96151 58.721 9.71667 59.8677 9.71123C61.001 9.70585 62.0155 9.94104 62.9111 10.4168C63.8066 10.8792 64.5097 11.5226 65.0203 12.3468C65.5308 13.1711 65.7887 14.1298 65.7939 15.2232C65.799 16.2898 65.5502 17.2443 65.0475 18.0867C64.5448 18.9158 63.8479 19.5725 62.9568 20.0567C62.0658 20.5409 61.0536 20.7857 59.9203 20.7911ZM59.9081 18.2311C60.4281 18.2287 60.8942 18.1065 61.3064 17.8645C61.7186 17.6225 62.0436 17.281 62.2815 16.8399C62.5194 16.3854 62.6369 15.8515 62.6339 15.2382C62.631 14.6115 62.5084 14.0787 62.2664 13.6399C62.0243 13.201 61.696 12.8626 61.2815 12.6246C60.8671 12.3865 60.3998 12.2687 59.8798 12.2712C59.3598 12.2737 58.8937 12.3959 58.4816 12.6378C58.0694 12.8798 57.7377 13.2214 57.4864 13.6626C57.2485 14.1037 57.131 14.6376 57.134 15.2643C57.1369 15.8776 57.2594 16.4103 57.5016 16.8625C57.757 17.3013 58.092 17.6397 58.5064 17.8778C58.9209 18.1158 59.3881 18.2336 59.9081 18.2311Z" fill="#5044E5"/>
<path id="Vector_11" d="M46.6501 20.6941L46.5962 9.3342L42.1163 9.35546L42.1037 6.71548L54.3036 6.65759L54.3161 9.29757L49.8362 9.31882L49.8901 20.6787L46.6501 20.6941Z" fill="#5044E5"/>
</g>
<path id="Vector_12" d="M8.63281 0L15.8667 6.1803C16.2962 6.5472 16.5438 7.0856 16.5438 7.6527V12.3104L9.30979 6.1302C8.88033 5.7633 8.63281 5.2248 8.63281 4.6577V0Z" fill="#5044E5"/>
<path id="Vector_13" d="M8.63281 27.9999L15.8667 21.8196C16.2962 21.4527 16.5438 20.9143 16.5438 20.3472V15.6895L9.30979 21.8697C8.88033 22.2366 8.63281 22.775 8.63281 23.3421V27.9999Z" fill="#5044E5"/>
<path id="Vector_14" d="M0 6.5166L7.13558 12.5788C7.48152 12.8727 7.91958 13.0339 8.37228 13.0339H14.1268L7.00881 6.9731C6.66261 6.6784 6.22387 6.5166 5.77046 6.5166H0Z" fill="#5044E5"/>
<path id="Vector_15" d="M0 21.4822L7.09169 15.4235C7.43826 15.1274 7.87793 14.9648 8.33245 14.9648H14.144L7.00839 21.027C6.66242 21.3209 6.22434 21.4822 5.77166 21.4822H0Z" fill="#5044E5"/>
<path id="Vector_16" d="M26.3719 0L19.1379 6.1803C18.7085 6.5472 18.4609 7.0856 18.4609 7.6527V12.3104L25.6949 6.1302C26.1243 5.7633 26.3719 5.2248 26.3719 4.6577V0Z" fill="#5044E5"/>
<path id="Vector_17" d="M26.3719 27.9999L19.1379 21.8196C18.7085 21.4527 18.4609 20.9143 18.4609 20.3472V15.6895L25.6949 21.8697C26.1243 22.2366 26.3719 22.775 26.3719 23.3421V27.9999Z" fill="#5044E5"/>
<path id="Vector_18" d="M35.0019 6.5166L27.8663 12.5788C27.5204 12.8727 27.0822 13.0339 26.6296 13.0339H20.875L27.9931 6.9731C28.3392 6.6784 28.778 6.5166 29.2314 6.5166H35.0019Z" fill="#5044E5"/>
<path id="Vector_19" d="M34.9994 21.4822L27.9077 15.4235C27.5612 15.1274 27.1214 14.9648 26.6669 14.9648H20.8555L27.991 21.027C28.337 21.3209 28.775 21.4822 29.2277 21.4822H34.9994Z" fill="#5044E5"/>
</g>
</svg>
